<?xml version="1.0" encoding="UTF-8"?>
<svg id="Vettoriale_-_E_Circuiti" data-name="Vettoriale - E &amp;amp; Circuiti" xmlns="http://www.w3.org/2000/svg" viewBox="0 0 1024 768">
  <rect x="469.53" y="261.7" width="18.89" height="13.02" fill="#10c9f7"/>
  <rect x="492" y="261.87" width="13.02" height="13.02" fill="#0791ff"/>
  <rect x="508.21" y="261.87" width="8.72" height="13.02" fill="#14a1f6"/>
  <rect x="519.83" y="261.87" width="26.38" height="13.02" fill="#14a1f6"/>
  <rect x="469.53" y="279.06" width="18.89" height="24.26" fill="#10c9f7"/>
  <rect x="469.53" y="331.06" width="18.89" height="26.55" fill="#10c9f7"/>
  <rect x="469.53" y="307.83" width="18.89" height="20.94" fill="#10c9f7"/>
  <rect x="469.53" y="360.43" width="18.89" height="18.89" fill="#11c1eb"/>
  <rect x="552.51" y="244.6" width="19.91" height="14.3" fill="#11c1eb"/>
  <rect x="549.96" y="261.87" width="22.47" height="13.02" fill="#11c1eb"/>
  <rect x="519.83" y="244.6" width="28.85" height="14.3" fill="#11c1eb"/>
  <rect x="489.7" y="244.6" width="26.21" height="14.3" fill="#3ae8c6"/>
  <rect x="453.19" y="307.83" width="13.28" height="31.74" fill="#3ae8c6"/>
  <rect x="453.19" y="283.49" width="13.28" height="9.11" fill="#3ae8c6"/>
  <rect x="453.19" y="296" width="13.28" height="8.51" fill="#0791ff"/>
  <rect x="453.19" y="361.36" width="12.34" height="17.19" fill="#14a1f6"/>
  <rect x="453.19" y="382.6" width="24.6" height="15.49" fill="#14a1f6"/>
  <rect x="492.72" y="382.6" width="22" height="15.49" fill="#14a1f6"/>
  <rect x="492" y="399.66" width="22.7" height="13.91" fill="#14a1f6"/>
  <rect x="518.21" y="400.3" width="9.96" height="13.28" fill="#0791ff"/>
  <rect x="531.4" y="400.3" width="16.85" height="13.28" fill="#0791ff"/>
  <rect x="552" y="401.02" width="23.15" height="12.23" fill="#0791ff"/>
  <rect x="469.53" y="399.66" width="18.89" height="13.91" fill="#14a1f6"/>
  <rect x="453.19" y="400.3" width="13.28" height="13.28" fill="#14a1f6"/>
  <polygon points="519.11 369.64 519.11 380.26 519.11 398.09 535.32 398.09 535.32 380.26 547.23 380.26 547.23 369.64 519.11 369.64" fill="#11c1eb"/>
  <rect x="537.68" y="385.4" width="8.53" height="12.68" fill="#0791ff"/>
  <rect x="453.19" y="261.11" width="13.28" height="19.06" fill="#9af3af"/>
  <rect x="453.19" y="244.6" width="28.51" height="12.6" fill="#9af3af"/>
  <rect x="492.68" y="369.87" width="22.04" height="9.45" fill="#3ae8c6"/>
  <rect x="549.96" y="371.28" width="22.47" height="26.81" fill="#11c1eb"/>
  <rect x="453.19" y="344.34" width="13.28" height="13.28" fill="#19c1f9"/>
  <rect x="492" y="309.87" width="40.6" height="14.81" fill="#10c9f7"/>
  <rect x="492" y="328.77" width="21.19" height="13.36" fill="#10c9f7"/>
  <rect x="515.91" y="328.77" width="17.7" height="13.36" fill="#10c9f7"/>
  <rect x="536.38" y="328.77" width="17.7" height="13.36" fill="#14a1f6"/>
  <rect x="536.47" y="309.87" width="17.62" height="14.81" fill="#10c9f7"/>
  <g>
    <circle cx="380.34" cy="289.11" r="3.66" fill="#9af3af"/>
    <circle cx="409.08" cy="240.4" r="3.12" fill="#9af3af"/>
    <circle cx="480.54" cy="226.29" r="3.94" fill="#3ae8c6"/>
    <circle cx="515.04" cy="217.55" r="2.82" fill="#11c1eb"/>
    <circle cx="438.7" cy="268.38" r="2.82" fill="#11c1eb"/>
    <circle cx="437.62" cy="299.4" r="2.82" fill="#11c1eb"/>
    <circle cx="404.23" cy="317.28" r="2.82" fill="#11c1eb"/>
    <circle cx="399.63" cy="342.13" r="2.82" fill="#11c1eb"/>
    <circle cx="441.52" cy="346.08" r="2.82" fill="#11c1eb"/>
    <circle cx="431.17" cy="400.81" r="3.97" fill="#11c1eb"/>
    <circle cx="533.85" cy="232.85" r="3.02" fill="#11c1eb"/>
    <circle cx="534.38" cy="232.98" r="3.55" fill="#11c1eb"/>
    <circle cx="379.06" cy="317.59" r="3.55" fill="#11c1eb"/>
    <circle cx="557.65" cy="230.02" r="2.96" fill="#11c1eb"/>
    <circle cx="418.76" cy="218.09" r="2.27" fill="#11c1eb"/>
    <circle cx="404.23" cy="359.67" r="2.27" fill="#11c1eb"/>
    <circle cx="413.1" cy="382.41" r="2.27" fill="#11c1eb"/>
    <circle cx="593.88" cy="392.61" r="2.27" fill="#11c1eb"/>
    <circle cx="620.74" cy="374.62" r="3.34" fill="#11c1eb"/>
    <circle cx="618.62" cy="240.24" r="4.36" fill="#11c1eb"/>
    <circle cx="420.34" cy="300.87" r="4.97" fill="#11c1eb"/>
    <circle cx="641.44" cy="313.61" r="3.16" fill="#11c1eb"/>
    <circle cx="612.5" cy="313.61" r="3.16" fill="#11c1eb"/>
    <circle cx="605.37" cy="288.74" r="2.46" fill="#11c1eb"/>
    <circle cx="588.49" cy="268.21" r="3.12" fill="#9af3af"/>
    <circle cx="626.95" cy="275.74" r="3.97" fill="#9af3af"/>
    <circle cx="629.11" cy="343.26" r="3.69" fill="#9af3af"/>
    <circle cx="582.2" cy="355.32" r="4.34" fill="#9af3af"/>
    <line x1="576.68" y1="390.34" x2="593.88" y2="390.34" fill="#14a1f6" stroke="#14a1f6" stroke-linecap="round" stroke-miterlimit="10" stroke-width=".75"/>
    <line x1="564.17" y1="313.06" x2="609.34" y2="313.06" fill="#14a1f6" stroke="#14a1f6" stroke-linecap="round" stroke-miterlimit="10" stroke-width=".75"/>
    <line x1="565.96" y1="313.06" x2="609.34" y2="313.06" fill="#14a1f6" stroke="#14a1f6" stroke-linecap="round" stroke-miterlimit="10" stroke-width=".75"/>
    <line x1="615.66" y1="313.06" x2="638.28" y2="313.06" fill="#14a1f6" stroke="#14a1f6" stroke-linecap="round" stroke-miterlimit="10" stroke-width=".75"/>
    <line x1="407.05" y1="317.28" x2="442.72" y2="317.28" fill="#14a1f6" stroke="#14a1f6" stroke-linecap="round" stroke-miterlimit="10" stroke-width=".75"/>
    <line x1="439.92" y1="299.4" x2="447.88" y2="299.4" fill="#14a1f6" stroke="#14a1f6" stroke-linecap="round" stroke-miterlimit="10" stroke-width=".75"/>
    <line x1="615.66" y1="313.06" x2="638.28" y2="313.06" fill="#14a1f6" stroke="#14a1f6" stroke-linecap="round" stroke-miterlimit="10" stroke-width=".75"/>
    <line x1="382.19" y1="317.59" x2="401.41" y2="317.59" fill="#14a1f6" stroke="#14a1f6" stroke-linecap="round" stroke-miterlimit="10" stroke-width=".75"/>
    <line x1="557.65" y1="244.6" x2="557.65" y2="232.98" fill="none" stroke="#14a1f6" stroke-linecap="round" stroke-miterlimit="10" stroke-width=".75"/>
    <line x1="497.74" y1="239.79" x2="497.74" y2="224.85" fill="none" stroke="#14a1f6" stroke-linecap="round" stroke-miterlimit="10" stroke-width=".75"/>
    <line x1="515.04" y1="244.96" x2="515.04" y2="220.37" fill="none" stroke="#14a1f6" stroke-linecap="round" stroke-miterlimit="10" stroke-width=".75"/>
    <path d="M436.13,268.72h-24.96c-1.65,0-4.1-.78-5.45-1.73l-2.61-1.84" fill="none" stroke="#14a1f6" stroke-linecap="round" stroke-miterlimit="10" stroke-width=".75"/>
    <polyline points="447.88 284.85 422.72 284.85 417.19 289.53 383.49 289.53" fill="none" stroke="#14a1f6" stroke-linecap="round" stroke-miterlimit="10" stroke-width=".75"/>
    <polyline points="445.57 327.06 432.77 327.06 425.62 334.21 409.79 334.21 402.62 341.38" fill="none" stroke="#14a1f6" stroke-linecap="round" stroke-miterlimit="10" stroke-width=".75"/>
    <polyline points="437.98 346.08 429.45 346.08 422.4 353.13 422.3 380.4 420.22 382.48 419.66 382.6 414.98 382.6" fill="none" stroke="#14a1f6" stroke-linecap="round" stroke-miterlimit="10" stroke-width=".75"/>
    <polyline points="437.98 364.09 435.32 364.09 433.23 366.17 433.28 397.45" fill="none" stroke="#14a1f6" stroke-linecap="round" stroke-miterlimit="10" stroke-width=".75"/>
    <path d="M616.05,243.28l-9.26,9.26c-.78.78-2.31,1.41-3.41,1.41h-21.57" fill="none" stroke="#14a1f6" stroke-linecap="round" stroke-miterlimit="10" stroke-width=".75"/>
    <path d="M606.74,286.7l8.37-8.37c.78-.78,2.31-1.41,3.41-1.41l4.33.02" fill="none" stroke="#14a1f6" stroke-linecap="round" stroke-miterlimit="10" stroke-width=".75"/>
    <path d="M602.92,288.74h-27.95c-1.1,0-2.64-.64-3.41-1.41l-2.67-2.67c-.78-.78-1.52-1.41-1.66-1.41s-1.14,0-2.24,0h-58.43" fill="none" stroke="#14a1f6" stroke-linecap="round" stroke-miterlimit="10" stroke-width=".75"/>
    <path d="M590.95,304.83l-5.71-5.71c-.78-.78-2.31-1.41-3.41-1.41h-70.68" fill="none" stroke="#14a1f6" stroke-linecap="round" stroke-miterlimit="10" stroke-width=".75"/>
    <path d="M565.96,337.96h22.94c1.1,0,2.64.64,3.41,1.41l10.49,10.49c.78.78,1.42,1.4,1.44,1.39s.02.88.02,1.98v25.33" fill="none" stroke="#14a1f6" stroke-linecap="round" stroke-miterlimit="10" stroke-width=".75"/>
    <path d="M565.96,325.51h52.55c1.1,0,2.64.64,3.41,1.41l4.65,4.65c.78.78,1.47,1.35,1.55,1.28s.13.77.13,1.87v4.95" fill="none" stroke="#14a1f6" stroke-linecap="round" stroke-miterlimit="10" stroke-width=".75"/>
    <path d="M575.15,373.96h19c1.1,0,2.64.64,3.41,1.41l7.08,7.08c.78.78,2.04,1.41,2.81,1.41h1.4" fill="none" stroke="#14a1f6" stroke-linecap="round" stroke-miterlimit="10" stroke-width=".75"/>
  </g>
  <g>
    <path d="M278.23,516.43v-61.2h56.1v9.18h-46.83v16.74h37.66v9.35h-37.66v16.75h46.83v9.18h-56.1Z" fill="#00c5f2"/>
    <path d="M342.31,516.43v-1.7l24.31-28.9-24.31-28.9v-1.7h10.62l19.72,23.38,19.64-23.38h10.62v1.7l-24.31,28.9,24.4,28.9v1.7h-10.71l-19.72-23.38-19.63,23.38h-10.62Z" fill="#00c5f2"/>
    <path d="M423.23,516.43c-2.04,0-3.9-.5-5.57-1.49-1.67-.99-3-2.32-4-4-.99-1.67-1.49-3.53-1.49-5.57v-39.1c0-2.04.5-3.89,1.49-5.57.99-1.67,2.32-3,4-4,1.67-.99,3.53-1.49,5.57-1.49h49.98v9.18h-48.71c-.91,0-1.66.3-2.25.89-.6.6-.89,1.35-.89,2.25v36.55c0,.91.3,1.66.89,2.25.6.59,1.35.89,2.25.89h48.71v9.18h-49.98Z" fill="#00c5f2"/>
    <path d="M482.22,516.43v-61.2h56.1v9.18h-46.83v16.74h37.65v9.35h-37.65v16.75h46.83v9.18h-56.1Z" fill="#00c5f2"/>
    <path d="M547.25,516.43v-61.29h9.18v52.11h52.02v9.18h-61.2Z" fill="#00c5f2"/>
    <path d="M613.46,516.43v-61.29h9.18v52.11h52.02v9.18h-61.2Z" fill="#00c5f2"/>
    <path d="M679.34,516.43v-61.2h9.18v61.2h-9.18Z" fill="#00c5f2"/>
    <path d="M697.95,466.28c0-2.04.5-3.89,1.49-5.57.99-1.67,2.32-3,3.99-4,1.67-.99,3.53-1.49,5.57-1.49h39.01c2.04,0,3.91.5,5.61,1.49,1.7.99,3.04,2.32,4.04,4,.99,1.67,1.49,3.53,1.49,5.57v50.15h-9.26v-21.42h-42.75v21.42h-9.18v-50.15ZM749.88,485.83v-19.29c0-.57-.2-1.06-.6-1.49-.4-.42-.91-.64-1.53-.64h-38.5c-.57,0-1.06.21-1.49.64-.42.43-.64.92-.64,1.49v19.29h42.75Z" fill="#00c5f2"/>
  </g>
  <g>
    <path d="M428.3,541.42c.84.44,1.49,1.1,1.95,1.97s.69,1.92.69,3.16v6.98h-2.34v-3.24h-6.55v3.24h-2.3v-6.98c0-1.24.23-2.29.69-3.16s1.11-1.53,1.95-1.97c.84-.44,1.82-.67,2.95-.67s2.11.22,2.95.67ZM428.61,548.33v-2c0-1.16-.29-2.04-.86-2.64-.58-.59-1.38-.89-2.41-.89s-1.84.3-2.41.89-.86,1.47-.86,2.64v2h6.55Z" fill="#3ae8c6"/>
    <path d="M445.29,540.94v12.6h-2.25v-1.6c-.85,1.19-2.17,1.78-3.96,1.78-1.49,0-2.66-.46-3.51-1.39s-1.28-2.25-1.28-3.95v-7.43h2.34v7.34c0,1.12.27,1.96.8,2.53.53.57,1.27.85,2.21.85,1.01,0,1.81-.3,2.41-.91.6-.61.9-1.51.9-2.71v-7.11h2.34Z" fill="#3ae8c6"/>
    <path d="M457.61,544.07c-1.19-.67-2.42-1.08-3.71-1.22v10.69h-2.34v-10.69c-1.3.14-2.54.55-3.73,1.22l-.81-1.8c.84-.5,1.74-.88,2.71-1.13s1.96-.38,2.98-.38,2.02.13,2.99.38c.97.25,1.88.63,2.72,1.13l-.81,1.8Z" fill="#3ae8c6"/>
    <path d="M462.38,552.88c-1.03-.56-1.84-1.33-2.43-2.32-.59-.99-.88-2.1-.88-3.32s.29-2.33.88-3.32,1.4-1.76,2.43-2.32c1.03-.56,2.19-.84,3.47-.84s2.44.28,3.47.84c1.03.56,1.84,1.33,2.43,2.31s.88,2.09.88,3.33-.29,2.35-.88,3.33c-.59.98-1.4,1.75-2.43,2.31-1.03.56-2.19.84-3.47.84s-2.44-.28-3.47-.84ZM468.12,551.1c.67-.38,1.2-.91,1.58-1.58.38-.68.58-1.44.58-2.28s-.19-1.6-.58-2.28c-.38-.68-.91-1.21-1.58-1.58-.67-.38-1.43-.57-2.27-.57s-1.6.19-2.27.57c-.67.38-1.2.91-1.58,1.58-.38.68-.58,1.44-.58,2.28s.19,1.6.58,2.28c.38.68.91,1.21,1.58,1.58.67.38,1.43.57,2.27.57s1.6-.19,2.27-.57Z" fill="#3ae8c6"/>
    <path d="M492.83,542.04c.83.86,1.24,2.09,1.24,3.7v7.79h-2.34v-7.7c0-1-.26-1.75-.78-2.26-.52-.51-1.2-.76-2.04-.76-.94,0-1.68.26-2.24.79-.56.53-.84,1.34-.84,2.43v7.51h-2.34v-7.7c0-1.01-.24-1.76-.73-2.27-.49-.5-1.15-.76-1.99-.76-.95,0-1.71.27-2.28.8-.57.53-.85,1.34-.85,2.42v7.51h-2.34v-12.6h2.27v1.66c.38-.59.91-1.04,1.57-1.36.66-.32,1.42-.48,2.29-.48s1.66.17,2.32.5c.66.34,1.16.81,1.49,1.42.42-.61.99-1.09,1.72-1.42.73-.33,1.53-.5,2.42-.5,1.48,0,2.63.43,3.46,1.29Z" fill="#3ae8c6"/>
    <path d="M505.97,541.42c.84.44,1.49,1.1,1.95,1.97s.69,1.92.69,3.16v6.98h-2.34v-3.24h-6.55v3.24h-2.3v-6.98c0-1.24.23-2.29.69-3.16s1.11-1.53,1.95-1.97c.84-.44,1.82-.67,2.95-.67s2.11.22,2.95.67ZM506.28,548.33v-2c0-1.16-.29-2.04-.86-2.64-.58-.59-1.38-.89-2.41-.89s-1.84.3-2.41.89-.86,1.47-.86,2.64v2h6.55Z" fill="#3ae8c6"/>
    <path d="M521.96,551.57v1.96h-10.75v-1.42l3.28-4.07h-2.23v-1.85h3.73l2.66-3.29h-7.34v-1.96h10.39v1.4l-3.13,3.89h2.09v1.85h-3.58l-2.81,3.49h7.7Z" fill="#3ae8c6"/>
    <path d="M528.06,542.9v8.68h2.32v1.96h-6.97v-1.96h2.32v-8.68h-2.32v-1.96h6.97v1.96h-2.32Z" fill="#3ae8c6"/>
    <path d="M535.31,552.88c-1.03-.56-1.84-1.33-2.43-2.32-.59-.99-.88-2.1-.88-3.32s.29-2.33.88-3.32,1.4-1.76,2.43-2.32c1.03-.56,2.19-.84,3.47-.84s2.44.28,3.47.84c1.03.56,1.84,1.33,2.43,2.31s.88,2.09.88,3.33-.29,2.35-.88,3.33c-.59.98-1.4,1.75-2.43,2.31-1.03.56-2.19.84-3.47.84s-2.44-.28-3.47-.84ZM541.05,551.1c.67-.38,1.2-.91,1.58-1.58.38-.68.58-1.44.58-2.28s-.19-1.6-.58-2.28c-.38-.68-.91-1.21-1.58-1.58s-1.43-.57-2.27-.57-1.6.19-2.27.57-1.2.91-1.58,1.58c-.38.68-.58,1.44-.58,2.28s.19,1.6.58,2.28c.38.68.91,1.21,1.58,1.58.67.38,1.43.57,2.27.57s1.6-.19,2.27-.57Z" fill="#3ae8c6"/>
    <path d="M558.04,542.14c.85.92,1.27,2.24,1.27,3.96v7.43h-2.34v-7.34c0-1.12-.27-1.96-.8-2.53-.53-.57-1.28-.85-2.22-.85-1.03,0-1.85.3-2.46.91-.61.61-.91,1.51-.91,2.71v7.11h-2.34v-12.6h2.27v1.58c.88-1.18,2.21-1.76,4-1.76,1.51,0,2.69.46,3.54,1.39Z" fill="#3ae8c6"/>
    <path d="M572.59,552.33c-.56.44-1.29.79-2.18,1.03-.89.24-1.85.36-2.88.36-1.21,0-2.24-.16-3.09-.47-.85-.31-1.48-.74-1.92-1.3-.43-.55-.65-1.19-.65-1.91s.19-1.3.58-1.82c.38-.52.9-.89,1.55-1.13-.49-.26-.88-.63-1.16-1.11-.28-.47-.42-1-.42-1.59,0-.67.2-1.28.6-1.83s1-.98,1.81-1.31c.8-.33,1.79-.5,2.97-.5.79,0,1.57.08,2.32.25.76.17,1.42.4,1.98.68l-.67,1.85c-1.06-.55-2.24-.83-3.55-.83-1.03,0-1.81.17-2.33.5-.52.33-.78.77-.78,1.32s.19.95.58,1.23c.38.28.95.42,1.69.42h3.33v1.94h-3.46c-.85,0-1.51.15-1.98.44s-.7.73-.7,1.3.28,1.03.85,1.37c.56.34,1.42.5,2.56.5.79,0,1.56-.11,2.31-.32.75-.22,1.38-.52,1.88-.9l.76,1.8Z" fill="#3ae8c6"/>
    <path d="M589.33,553.73l-1.58-1.53c-1.18,1.01-2.59,1.51-4.23,1.51-.88,0-1.66-.14-2.36-.43s-1.24-.69-1.64-1.2c-.4-.51-.59-1.09-.59-1.74,0-.78.23-1.47.68-2.06s1.2-1.18,2.23-1.75c-.5-.5-.86-.97-1.08-1.41-.22-.44-.32-.89-.32-1.36,0-.89.33-1.6,1-2.15s1.55-.82,2.65-.82c1.02,0,1.84.25,2.45.75.61.5.92,1.17.92,2.03,0,.65-.2,1.22-.6,1.73-.4.5-1.06,1.01-1.97,1.53l2.72,2.59c.3-.59.53-1.3.7-2.12l1.82.59c-.24,1.12-.62,2.08-1.13,2.88l1.58,1.51-1.24,1.46ZM586.41,550.93l-3.33-3.19c-.72.4-1.23.78-1.52,1.14-.29.37-.44.78-.44,1.23,0,.53.23.95.7,1.28.47.32,1.09.49,1.85.49,1.04,0,1.96-.32,2.74-.95ZM582.92,542.76c-.29.25-.43.57-.43.96,0,.29.08.56.23.82.16.26.46.61.9,1.05.72-.4,1.22-.74,1.5-1.03s.42-.62.42-.96c0-.37-.13-.67-.39-.88-.26-.22-.62-.32-1.07-.32-.49,0-.88.12-1.17.37Z" fill="#3ae8c6"/>
    <path d="M606.36,541.42c.84.44,1.49,1.1,1.95,1.97s.69,1.92.69,3.16v6.98h-2.34v-3.24h-6.55v3.24h-2.3v-6.98c0-1.24.23-2.29.69-3.16s1.11-1.53,1.95-1.97c.84-.44,1.82-.67,2.95-.67s2.11.22,2.95.67ZM606.66,548.33v-2c0-1.16-.29-2.04-.86-2.64s-1.38-.89-2.41-.89-1.84.3-2.41.89-.86,1.47-.86,2.64v2h6.55Z" fill="#3ae8c6"/>
    <path d="M616.15,542.9v8.68h2.32v1.96h-6.97v-1.96h2.32v-8.68h-2.32v-1.96h6.97v1.96h-2.32Z" fill="#3ae8c6"/>
  </g>
</svg>